<?xml version="1.0" standalone="no"?><!DOCTYPE svg PUBLIC "-//W3C//DTD SVG 1.1//EN" "http://www.w3.org/Graphics/SVG/1.1/DTD/svg11.dtd"><svg t="1743217664901" class="icon" viewBox="0 0 1024 1024" version="1.1" xmlns="http://www.w3.org/2000/svg" p-id="1126" xmlns:xlink="http://www.w3.org/1999/xlink" width="200" height="200"><path d="M550.68 847.5h-64.49c-29.29 0-51.96-25.65-48.37-54.71l18.09-146.52c3.02-24.42 23.76-42.77 48.37-42.77h28.31c24.61 0 45.36 18.34 48.37 42.77l18.09 146.52c3.59 29.07-19.09 54.71-48.37 54.71z" fill="#82529d" p-id="1127"></path><path d="M858.12 451.71c-18.59-77.58-86.19-130.58-162.08-134.06-14.98-81.44-86.33-143.15-172.1-143.15s-157.06 61.65-172.08 143.04c-0.97-0.02-1.95-0.04-2.92-0.04-96.65 0-175 78.35-175 175s71.53 167.98 162.21 174.53c50.42 12.13 116.04 19.47 187.79 19.47 79.35 0 151.2-8.97 203.29-23.48 0.5-0.11 1-0.22 1.49-0.34 10.05-2.41 70.38-30.22 78.21-42.18 44.59-41.6 66.41-105.25 51.18-168.79z" fill="#82529d" p-id="1128"></path></svg>